<svg width="32" height="32" viewBox="0 0 32 32" fill="none" xmlns="http://www.w3.org/2000/svg">
  <!-- CodeState Icon - CS Logo -->
  <g transform="translate(2, 8) scale(1.2)">
    <path d="M10.0918 11H3.22168C3.0459 11 2.85547 10.9805 2.65039 10.9414C2.4502 10.8975 2.25 10.8315 2.0498 10.7437C1.85449 10.6558 1.6665 10.5435 1.48584 10.4067C1.30518 10.2651 1.14404 10.0967 1.00244 9.90137C0.865723 9.70117 0.755859 9.47168 0.672852 9.21289C0.589844 8.94922 0.54834 8.65381 0.54834 8.32666V3.17041C0.54834 2.99463 0.567871 2.80664 0.606934 2.60645C0.650879 2.40137 0.716797 2.20117 0.804688 2.00586C0.892578 1.80566 1.00732 1.61523 1.14893 1.43457C1.29053 1.25391 1.45898 1.09521 1.6543 0.958496C1.85449 0.816895 2.08398 0.70459 2.34277 0.621582C2.60156 0.538574 2.89453 0.49707 3.22168 0.49707H10.0918V2.40137H3.22168C2.97266 2.40137 2.78223 2.46729 2.65039 2.59912C2.51855 2.73096 2.45264 2.92627 2.45264 3.18506V8.32666C2.45264 8.5708 2.51855 8.76123 2.65039 8.89795C2.78711 9.02979 2.97754 9.0957 3.22168 9.0957H10.0918V11ZM21.9424 7.90918C21.9424 8.28516 21.8936 8.62451 21.7959 8.92725C21.7031 9.2251 21.5786 9.48877 21.4224 9.71826C21.2661 9.94775 21.083 10.1431 20.873 10.3042C20.6631 10.4653 20.4458 10.5972 20.2212 10.6997C19.9966 10.8022 19.7671 10.8779 19.5327 10.9268C19.3032 10.9756 19.0859 11 18.8809 11H11.5347V9.0957H18.8809C19.2471 9.0957 19.5303 8.98828 19.7305 8.77344C19.9355 8.55859 20.0381 8.27051 20.0381 7.90918C20.0381 7.7334 20.0112 7.57227 19.9575 7.42578C19.9038 7.2793 19.8257 7.15234 19.7231 7.04492C19.6255 6.9375 19.5034 6.85449 19.3569 6.7959C19.2153 6.7373 19.0566 6.70801 18.8809 6.70801H14.501C14.1934 6.70801 13.8613 6.6543 13.5049 6.54688C13.1484 6.43457 12.8164 6.25635 12.5088 6.01221C12.2061 5.76807 11.9521 5.44824 11.7471 5.05273C11.5469 4.65723 11.4468 4.17383 11.4468 3.60254C11.4468 3.03125 11.5469 2.55029 11.7471 2.15967C11.9521 1.76416 12.2061 1.44434 12.5088 1.2002C12.8164 0.951172 13.1484 0.772949 13.5049 0.665527C13.8613 0.553223 14.1934 0.49707 14.501 0.49707H20.9829V2.40137H14.501C14.1396 2.40137 13.8564 2.51123 13.6514 2.73096C13.4512 2.95068 13.3511 3.24121 13.3511 3.60254C13.3511 3.96875 13.4512 4.25928 13.6514 4.47412C13.8564 4.68408 14.1396 4.78906 14.501 4.78906H18.8809H18.8955C19.1006 4.79395 19.3179 4.82324 19.5474 4.87695C19.7769 4.92578 20.0039 5.00391 20.2285 5.11133C20.458 5.21875 20.6753 5.35547 20.8804 5.52148C21.0854 5.68262 21.2661 5.87793 21.4224 6.10742C21.5835 6.33691 21.7104 6.60059 21.8032 6.89844C21.896 7.19629 21.9424 7.5332 21.9424 7.90918Z" fill="currentColor"/>
  </g>
</svg>
